<svg width="185" height="40" viewBox="0 0 185 40" fill="none" xmlns="http://www.w3.org/2000/svg">
<path d="M0.771055 38.43H1.05605C1.36005 38.43 1.62605 38.335 1.85405 38.145C2.08205 37.917 2.27205 37.651 2.42405 37.347C2.61405 37.043 2.74705 36.72 2.82305 36.378C2.93705 36.036 2.99406 35.713 2.99406 35.409V4.914C2.99406 4.648 2.93705 4.344 2.82305 4.002C2.74705 3.66 2.61405 3.337 2.42405 3.033C2.27205 2.729 2.08205 2.482 1.85405 2.292C1.62605 2.064 1.36005 1.95 1.05605 1.95H0.771055V1.38H22.7161V6.681H22.1461C22.0701 5.807 21.7281 5.047 21.1201 4.401C20.5121 3.717 19.5621 3.375 18.2701 3.375H6.81306V17.796H16.2751C17.1491 17.796 17.8711 17.53 18.4411 16.998C19.0491 16.466 19.3531 15.839 19.3531 15.117H19.9231V22.242H19.3531C19.3531 21.558 19.0681 20.969 18.4981 20.475C17.9281 19.981 17.1871 19.734 16.2751 19.734H6.81306V37.005H19.2961C20.0181 37.005 20.6451 36.834 21.1771 36.492C21.7091 36.15 22.1461 35.751 22.4881 35.295C22.8681 34.801 23.1341 34.288 23.2861 33.756C23.4761 33.186 23.5711 32.711 23.5711 32.331H24.1411V39H0.771055V38.43ZM28.4361 1.38H36.5301V1.95H36.2451C35.9411 1.95 35.6751 2.064 35.4471 2.292C35.2191 2.482 35.0101 2.729 34.8201 3.033C34.6681 3.337 34.5541 3.66 34.4781 4.002C34.4021 4.344 34.3641 4.648 34.3641 4.914V27.429C34.3641 28.911 34.5161 30.279 34.8201 31.533C35.1241 32.787 35.6371 33.87 36.3591 34.782C37.0811 35.694 38.0311 36.416 39.2091 36.948C40.3871 37.442 41.8311 37.689 43.5411 37.689C45.4411 37.689 46.9611 37.385 48.1011 36.777C49.2411 36.169 50.1151 35.39 50.7231 34.44C51.3311 33.452 51.7301 32.35 51.9201 31.134C52.1101 29.918 52.2051 28.721 52.2051 27.543V4.914C52.2051 4.648 52.1671 4.344 52.0911 4.002C52.0151 3.66 51.8821 3.337 51.6921 3.033C51.5401 2.729 51.3501 2.482 51.1221 2.292C50.8941 2.064 50.6471 1.95 50.3811 1.95H50.0961V1.38H56.3091V1.95H56.0241C55.7201 1.95 55.4541 2.064 55.2261 2.292C55.0361 2.482 54.8461 2.729 54.6561 3.033C54.5041 3.337 54.3901 3.66 54.3141 4.002C54.2381 4.344 54.2001 4.648 54.2001 4.914V27.372C54.2001 29.842 53.8961 31.875 53.2881 33.471C52.6801 35.029 51.8441 36.264 50.7801 37.176C49.7161 38.088 48.4621 38.715 47.0181 39.057C45.6121 39.399 44.1111 39.57 42.5151 39.57C40.8051 39.57 39.2091 39.38 37.7271 39C36.2831 38.658 35.0291 38.031 33.9651 37.119C32.9011 36.207 32.0651 34.972 31.4571 33.414C30.8491 31.818 30.5451 29.823 30.5451 27.429V4.914C30.5451 4.648 30.5071 4.344 30.4311 4.002C30.3551 3.66 30.2221 3.337 30.0321 3.033C29.8801 2.729 29.6901 2.482 29.4621 2.292C29.2341 2.064 28.9871 1.95 28.7211 1.95H28.4361V1.38ZM67.7082 38.43H67.9932V39H61.6662V38.43H61.9512C62.2172 38.43 62.4642 38.316 62.6922 38.088C62.9582 37.86 63.1672 37.594 63.3192 37.29C63.4712 36.986 63.5852 36.663 63.6612 36.321C63.7752 35.941 63.8322 35.599 63.8322 35.295V4.914C63.8322 4.648 63.7942 4.344 63.7182 4.002C63.6802 3.66 63.5852 3.337 63.4332 3.033C63.2812 2.729 63.0722 2.482 62.8062 2.292C62.5402 2.064 62.2172 1.95 61.8372 1.95H61.5522V1.38H67.3092L88.0002 33.984V4.914C88.0002 4.648 87.9432 4.344 87.8292 4.002C87.7532 3.66 87.6202 3.337 87.4302 3.033C87.2782 2.729 87.0882 2.482 86.8602 2.292C86.6322 2.064 86.3662 1.95 86.0622 1.95H85.7772V1.38H92.1612V1.95H91.8762C91.5722 1.95 91.3062 2.064 91.0782 2.292C90.8502 2.482 90.6412 2.729 90.4512 3.033C90.2992 3.337 90.1852 3.66 90.1092 4.002C90.0332 4.344 89.9952 4.648 89.9952 4.914V39H86.4612L65.8272 6.282V35.295C65.8272 35.599 65.8652 35.941 65.9412 36.321C66.0172 36.663 66.1312 36.986 66.2832 37.29C66.4732 37.594 66.6822 37.86 66.9102 38.088C67.1382 38.316 67.4042 38.43 67.7082 38.43ZM116.724 0.809999C119.688 0.809999 122.348 1.342 124.704 2.406C127.06 3.432 129.055 4.838 130.689 6.624C132.361 8.372 133.634 10.424 134.508 12.78C135.42 15.098 135.876 17.53 135.876 20.076C135.876 22.926 135.344 25.548 134.28 27.942C133.254 30.336 131.829 32.388 130.005 34.098C128.181 35.808 126.053 37.157 123.621 38.145C121.227 39.095 118.662 39.57 115.926 39.57C113 39.57 110.359 39.038 108.003 37.974C105.685 36.91 103.709 35.504 102.075 33.756C100.479 32.008 99.2442 29.994 98.3702 27.714C97.4962 25.434 97.0592 23.059 97.0592 20.589C97.0592 18.157 97.4962 15.763 98.3702 13.407C99.2442 11.013 100.517 8.885 102.189 7.023C103.899 5.161 105.97 3.66 108.402 2.52C110.834 1.38 113.608 0.809999 116.724 0.809999ZM116.667 37.575C119.213 37.461 121.436 36.891 123.336 35.865C125.274 34.801 126.889 33.471 128.181 31.875C129.473 30.241 130.423 28.455 131.031 26.517C131.677 24.579 132 22.66 132 20.76C132 18.67 131.62 16.561 130.86 14.433C130.1 12.305 129.017 10.386 127.611 8.676C126.205 6.928 124.514 5.522 122.538 4.458C120.6 3.356 118.415 2.805 115.983 2.805C113.627 2.805 111.518 3.337 109.656 4.401C107.794 5.427 106.198 6.757 104.868 8.391C103.576 10.025 102.588 11.849 101.904 13.863C101.22 15.877 100.878 17.853 100.878 19.791C100.878 21.881 101.277 23.99 102.075 26.118C102.873 28.208 103.975 30.108 105.381 31.818C106.787 33.528 108.44 34.915 110.34 35.979C112.278 37.043 114.387 37.575 116.667 37.575ZM141.106 1.38H149.257V1.95H148.972C148.706 1.95 148.459 2.064 148.231 2.292C148.003 2.482 147.813 2.729 147.661 3.033C147.509 3.299 147.376 3.622 147.262 4.002C147.186 4.344 147.148 4.648 147.148 4.914V35.295C147.148 35.599 147.186 35.941 147.262 36.321C147.338 36.663 147.452 36.986 147.604 37.29C147.794 37.594 147.984 37.86 148.174 38.088C148.402 38.316 148.668 38.43 148.972 38.43H149.257V39H141.106V38.43H141.391C141.695 38.43 141.961 38.335 142.189 38.145C142.417 37.917 142.607 37.651 142.759 37.347C142.949 37.005 143.082 36.663 143.158 36.321C143.234 35.941 143.272 35.599 143.272 35.295V4.914C143.272 4.648 143.234 4.344 143.158 4.002C143.082 3.66 142.949 3.337 142.759 3.033C142.607 2.729 142.417 2.482 142.189 2.292C141.961 2.064 141.695 1.95 141.391 1.95H141.106V1.38ZM176.512 38.43H176.797C177.709 38.43 178.165 38.012 178.165 37.176C178.165 36.872 178.108 36.549 177.994 36.207L172.864 22.356H162.889L157.93 35.979C157.816 36.283 157.759 36.568 157.759 36.834C157.759 37.328 157.892 37.727 158.158 38.031C158.424 38.297 158.709 38.43 159.013 38.43H159.298V39H152.971V38.43H153.256C153.75 38.43 154.225 38.145 154.681 37.575C155.175 36.967 155.574 36.264 155.878 35.466L168.931 0.695997L181.699 35.124C181.965 35.884 182.326 36.625 182.782 37.347C183.276 38.069 183.903 38.43 184.663 38.43H184.948V39H176.512V38.43ZM163.459 20.418H172.237L167.848 8.505L163.459 20.418Z" fill="#231914"/>
</svg>
